<?xml version="1.0" encoding="UTF-8" standalone="no"?>
<!DOCTYPE svg PUBLIC "-//W3C//DTD SVG 1.1//EN"
 "http://www.w3.org/Graphics/SVG/1.1/DTD/svg11.dtd">
<!-- Generated by graphviz version 2.43.0 (0)
 -->
<!-- Title: finite_state_machine Pages: 1 -->
<svg width="542pt" height="139pt"
 viewBox="0.00 0.00 541.60 139.14" xmlns="http://www.w3.org/2000/svg" xmlns:xlink="http://www.w3.org/1999/xlink">
<g id="graph0" class="graph" transform="scale(1 1) rotate(0) translate(4 135.14)">
<title>finite_state_machine</title>
<polygon fill="white" stroke="transparent" points="-4,4 -4,-135.14 537.6,-135.14 537.6,4 -4,4"/>
<!-- init -->
<g id="node1" class="node">
<title>init</title>
<ellipse fill="red" stroke="black" cx="1.8" cy="-43.64" rx="1.8" ry="1.8"/>
</g>
<!-- S0 -->
<g id="node2" class="node">
<title>S0</title>
<path fill="none" stroke="black" d="M52.6,-25.64C52.6,-25.64 89.6,-25.64 89.6,-25.64 95.6,-25.64 101.6,-31.64 101.6,-37.64 101.6,-37.64 101.6,-49.64 101.6,-49.64 101.6,-55.64 95.6,-61.64 89.6,-61.64 89.6,-61.64 52.6,-61.64 52.6,-61.64 46.6,-61.64 40.6,-55.64 40.6,-49.64 40.6,-49.64 40.6,-37.64 40.6,-37.64 40.6,-31.64 46.6,-25.64 52.6,-25.64"/>
<text text-anchor="middle" x="58.1" y="-39.94" font-family="Times,serif" font-size="14.00">S0</text>
<polyline fill="none" stroke="black" points="75.6,-25.64 75.6,-61.64 "/>
<text text-anchor="middle" x="88.6" y="-39.94" font-family="Times,serif" font-size="14.00">0</text>
</g>
<!-- init&#45;&gt;S0 -->
<g id="edge1" class="edge">
<title>init&#45;&gt;S0</title>
<path fill="none" stroke="black" d="M3.97,-43.64C7.46,-43.64 18.31,-43.64 30.25,-43.64"/>
<polygon fill="red" stroke="black" points="30.39,-47.14 40.39,-43.64 30.39,-40.14 30.39,-47.14"/>
</g>
<!-- S0&#45;&gt;S0 -->
<g id="edge2" class="edge">
<title>S0&#45;&gt;S0</title>
<path fill="none" stroke="black" d="M62.47,-61.67C61.01,-71.34 63.88,-80.14 71.1,-80.14 75.61,-80.14 78.43,-76.7 79.55,-71.76"/>
<polygon fill="black" stroke="black" points="83.05,-71.73 79.73,-61.67 76.05,-71.61 83.05,-71.73"/>
<text text-anchor="middle" x="71.1" y="-83.94" font-family="Times,serif" font-size="14.00">~i</text>
</g>
<!-- S1 -->
<g id="node3" class="node">
<title>S1</title>
<path fill="none" stroke="black" d="M154.6,-61.64C154.6,-61.64 191.6,-61.64 191.6,-61.64 197.6,-61.64 203.6,-67.64 203.6,-73.64 203.6,-73.64 203.6,-85.64 203.6,-85.64 203.6,-91.64 197.6,-97.64 191.6,-97.64 191.6,-97.64 154.6,-97.64 154.6,-97.64 148.6,-97.64 142.6,-91.64 142.6,-85.64 142.6,-85.64 142.6,-73.64 142.6,-73.64 142.6,-67.64 148.6,-61.64 154.6,-61.64"/>
<text text-anchor="middle" x="160.1" y="-75.94" font-family="Times,serif" font-size="14.00">S1</text>
<polyline fill="none" stroke="black" points="177.6,-61.64 177.6,-97.64 "/>
<text text-anchor="middle" x="190.6" y="-75.94" font-family="Times,serif" font-size="14.00">0</text>
</g>
<!-- S0&#45;&gt;S1 -->
<g id="edge3" class="edge">
<title>S0&#45;&gt;S1</title>
<path fill="none" stroke="black" d="M101.83,-54.35C111.52,-57.83 122.43,-61.76 132.71,-65.46"/>
<polygon fill="black" stroke="black" points="131.71,-68.82 142.31,-68.92 134.09,-62.24 131.71,-68.82"/>
<text text-anchor="middle" x="122.1" y="-65.44" font-family="Times,serif" font-size="14.00">i</text>
</g>
<!-- S1&#45;&gt;S1 -->
<g id="edge4" class="edge">
<title>S1&#45;&gt;S1</title>
<path fill="none" stroke="black" d="M164.11,-97.67C162.58,-107.34 165.58,-116.14 173.1,-116.14 177.8,-116.14 180.73,-112.7 181.9,-107.76"/>
<polygon fill="black" stroke="black" points="185.4,-107.74 182.09,-97.67 178.4,-107.6 185.4,-107.74"/>
<text text-anchor="middle" x="173.1" y="-119.94" font-family="Times,serif" font-size="14.00">i</text>
</g>
<!-- S2 -->
<g id="node4" class="node">
<title>S2</title>
<path fill="none" stroke="black" d="M268.6,-9.64C268.6,-9.64 305.6,-9.64 305.6,-9.64 311.6,-9.64 317.6,-15.64 317.6,-21.64 317.6,-21.64 317.6,-33.64 317.6,-33.64 317.6,-39.64 311.6,-45.64 305.6,-45.64 305.6,-45.64 268.6,-45.64 268.6,-45.64 262.6,-45.64 256.6,-39.64 256.6,-33.64 256.6,-33.64 256.6,-21.64 256.6,-21.64 256.6,-15.64 262.6,-9.64 268.6,-9.64"/>
<text text-anchor="middle" x="274.1" y="-23.94" font-family="Times,serif" font-size="14.00">S2</text>
<polyline fill="none" stroke="black" points="291.6,-9.64 291.6,-45.64 "/>
<text text-anchor="middle" x="304.6" y="-23.94" font-family="Times,serif" font-size="14.00">0</text>
</g>
<!-- S1&#45;&gt;S2 -->
<g id="edge5" class="edge">
<title>S1&#45;&gt;S2</title>
<path fill="none" stroke="black" d="M203.82,-65.85C216.98,-59.73 232.65,-52.46 246.77,-45.91"/>
<polygon fill="black" stroke="black" points="248.65,-48.89 256.24,-41.51 245.7,-42.54 248.65,-48.89"/>
<text text-anchor="middle" x="230.1" y="-61.44" font-family="Times,serif" font-size="14.00">~i</text>
</g>
<!-- S2&#45;&gt;S0 -->
<g id="edge6" class="edge">
<title>S2&#45;&gt;S0</title>
<path fill="none" stroke="black" d="M256.4,-29.19C227.36,-30.78 181.91,-33.46 142.6,-36.64 132.68,-37.45 121.99,-38.44 112.01,-39.43"/>
<polygon fill="black" stroke="black" points="111.52,-35.96 101.92,-40.44 112.22,-42.92 111.52,-35.96"/>
<text text-anchor="middle" x="173.1" y="-40.44" font-family="Times,serif" font-size="14.00">~i</text>
</g>
<!-- S3 -->
<g id="node5" class="node">
<title>S3</title>
<path fill="none" stroke="black" d="M382.6,-29.64C382.6,-29.64 419.6,-29.64 419.6,-29.64 425.6,-29.64 431.6,-35.64 431.6,-41.64 431.6,-41.64 431.6,-53.64 431.6,-53.64 431.6,-59.64 425.6,-65.64 419.6,-65.64 419.6,-65.64 382.6,-65.64 382.6,-65.64 376.6,-65.64 370.6,-59.64 370.6,-53.64 370.6,-53.64 370.6,-41.64 370.6,-41.64 370.6,-35.64 376.6,-29.64 382.6,-29.64"/>
<text text-anchor="middle" x="388.1" y="-43.94" font-family="Times,serif" font-size="14.00">S3</text>
<polyline fill="none" stroke="black" points="405.6,-29.64 405.6,-65.64 "/>
<text text-anchor="middle" x="418.6" y="-43.94" font-family="Times,serif" font-size="14.00">0</text>
</g>
<!-- S2&#45;&gt;S3 -->
<g id="edge7" class="edge">
<title>S2&#45;&gt;S3</title>
<path fill="none" stroke="black" d="M317.62,-35.7C323.55,-37.15 329.75,-38.55 335.6,-39.64 343.55,-41.14 352.11,-42.42 360.31,-43.49"/>
<polygon fill="black" stroke="black" points="360.09,-46.99 370.44,-44.75 360.94,-40.05 360.09,-46.99"/>
<text text-anchor="middle" x="344.1" y="-46.44" font-family="Times,serif" font-size="14.00">i</text>
</g>
<!-- S3&#45;&gt;S2 -->
<g id="edge8" class="edge">
<title>S3&#45;&gt;S2</title>
<path fill="none" stroke="black" d="M373.77,-29.52C367.14,-25.86 359.84,-22.56 352.6,-20.64 344.71,-18.56 336.13,-18.21 327.87,-18.79"/>
<polygon fill="black" stroke="black" points="327.2,-15.34 317.66,-19.95 327.99,-22.3 327.2,-15.34"/>
<text text-anchor="middle" x="344.1" y="-24.44" font-family="Times,serif" font-size="14.00">~i</text>
</g>
<!-- S4 -->
<g id="node6" class="node">
<title>S4</title>
<path fill="none" stroke="black" d="M484.6,-29.64C484.6,-29.64 521.6,-29.64 521.6,-29.64 527.6,-29.64 533.6,-35.64 533.6,-41.64 533.6,-41.64 533.6,-53.64 533.6,-53.64 533.6,-59.64 527.6,-65.64 521.6,-65.64 521.6,-65.64 484.6,-65.64 484.6,-65.64 478.6,-65.64 472.6,-59.64 472.6,-53.64 472.6,-53.64 472.6,-41.64 472.6,-41.64 472.6,-35.64 478.6,-29.64 484.6,-29.64"/>
<text text-anchor="middle" x="490.1" y="-43.94" font-family="Times,serif" font-size="14.00">S4</text>
<polyline fill="none" stroke="black" points="507.6,-29.64 507.6,-65.64 "/>
<text text-anchor="middle" x="520.6" y="-43.94" font-family="Times,serif" font-size="14.00">1</text>
</g>
<!-- S3&#45;&gt;S4 -->
<g id="edge9" class="edge">
<title>S3&#45;&gt;S4</title>
<path fill="none" stroke="black" d="M431.83,-47.64C441.32,-47.64 451.98,-47.64 462.07,-47.64"/>
<polygon fill="black" stroke="black" points="462.31,-51.14 472.31,-47.64 462.31,-44.14 462.31,-51.14"/>
<text text-anchor="middle" x="452.1" y="-51.44" font-family="Times,serif" font-size="14.00">i</text>
</g>
<!-- S4&#45;&gt;S1 -->
<g id="edge10" class="edge">
<title>S4&#45;&gt;S1</title>
<path fill="none" stroke="black" d="M472.3,-62.29C460.01,-67.59 445.43,-72.92 431.6,-75.64 355.83,-90.55 265.09,-87.16 214.07,-83.38"/>
<polygon fill="black" stroke="black" points="214.05,-79.87 203.81,-82.58 213.5,-86.85 214.05,-79.87"/>
<text text-anchor="middle" x="344.1" y="-89.44" font-family="Times,serif" font-size="14.00">i</text>
</g>
<!-- S4&#45;&gt;S2 -->
<g id="edge11" class="edge">
<title>S4&#45;&gt;S2</title>
<path fill="none" stroke="black" d="M479.79,-29.64C466.62,-20.19 449.13,-9.57 431.6,-4.64 397.05,5.06 356.6,-3.12 327.46,-12.3"/>
<polygon fill="black" stroke="black" points="326.04,-9.09 317.66,-15.57 328.25,-15.73 326.04,-9.09"/>
<text text-anchor="middle" x="401.1" y="-8.44" font-family="Times,serif" font-size="14.00">~i</text>
</g>
</g>
</svg>
