<?xml version="1.0" encoding="UTF-8" standalone="no"?>
<!DOCTYPE svg PUBLIC "-//W3C//DTD SVG 1.1//EN"
 "http://www.w3.org/Graphics/SVG/1.1/DTD/svg11.dtd">
<!-- Generated by graphviz version 2.43.0 (0)
 -->
<!-- Title: finite_state_machine Pages: 1 -->
<svg width="542pt" height="160pt"
 viewBox="0.00 0.00 541.60 160.00" xmlns="http://www.w3.org/2000/svg" xmlns:xlink="http://www.w3.org/1999/xlink">
<g id="graph0" class="graph" transform="scale(1 1) rotate(0) translate(4 156)">
<title>finite_state_machine</title>
<polygon fill="white" stroke="transparent" points="-4,4 -4,-156 537.6,-156 537.6,4 -4,4"/>
<!-- init -->
<g id="node1" class="node">
<title>init</title>
<ellipse fill="red" stroke="black" cx="1.8" cy="-48.5" rx="1.8" ry="1.8"/>
</g>
<!-- S0 -->
<g id="node2" class="node">
<title>S0</title>
<path fill="none" stroke="black" d="M52.6,-30.5C52.6,-30.5 89.6,-30.5 89.6,-30.5 95.6,-30.5 101.6,-36.5 101.6,-42.5 101.6,-42.5 101.6,-54.5 101.6,-54.5 101.6,-60.5 95.6,-66.5 89.6,-66.5 89.6,-66.5 52.6,-66.5 52.6,-66.5 46.6,-66.5 40.6,-60.5 40.6,-54.5 40.6,-54.5 40.6,-42.5 40.6,-42.5 40.6,-36.5 46.6,-30.5 52.6,-30.5"/>
<text text-anchor="middle" x="58.1" y="-44.8" font-family="Times,serif" font-size="14.00">S0</text>
<polyline fill="none" stroke="black" points="75.6,-30.5 75.6,-66.5 "/>
<text text-anchor="middle" x="88.6" y="-44.8" font-family="Times,serif" font-size="14.00">0</text>
</g>
<!-- init&#45;&gt;S0 -->
<g id="edge1" class="edge">
<title>init&#45;&gt;S0</title>
<path fill="none" stroke="black" d="M3.97,-48.5C7.46,-48.5 18.31,-48.5 30.25,-48.5"/>
<polygon fill="red" stroke="black" points="30.39,-52 40.39,-48.5 30.39,-45 30.39,-52"/>
</g>
<!-- S0&#45;&gt;S0 -->
<g id="edge2" class="edge">
<title>S0&#45;&gt;S0</title>
<path fill="none" stroke="black" d="M62.47,-66.53C61.01,-76.19 63.88,-85 71.1,-85 75.61,-85 78.43,-81.56 79.55,-76.62"/>
<polygon fill="black" stroke="black" points="83.05,-76.59 79.73,-66.53 76.05,-76.46 83.05,-76.59"/>
<text text-anchor="middle" x="71.1" y="-88.8" font-family="Times,serif" font-size="14.00">~i</text>
</g>
<!-- S1 -->
<g id="node3" class="node">
<title>S1</title>
<path fill="none" stroke="black" d="M154.6,-82.5C154.6,-82.5 191.6,-82.5 191.6,-82.5 197.6,-82.5 203.6,-88.5 203.6,-94.5 203.6,-94.5 203.6,-106.5 203.6,-106.5 203.6,-112.5 197.6,-118.5 191.6,-118.5 191.6,-118.5 154.6,-118.5 154.6,-118.5 148.6,-118.5 142.6,-112.5 142.6,-106.5 142.6,-106.5 142.6,-94.5 142.6,-94.5 142.6,-88.5 148.6,-82.5 154.6,-82.5"/>
<text text-anchor="middle" x="160.1" y="-96.8" font-family="Times,serif" font-size="14.00">S1</text>
<polyline fill="none" stroke="black" points="177.6,-82.5 177.6,-118.5 "/>
<text text-anchor="middle" x="190.6" y="-96.8" font-family="Times,serif" font-size="14.00">0</text>
</g>
<!-- S0&#45;&gt;S1 -->
<g id="edge3" class="edge">
<title>S0&#45;&gt;S1</title>
<path fill="none" stroke="black" d="M101.83,-63.96C111.72,-69.1 122.88,-74.9 133.34,-80.35"/>
<polygon fill="black" stroke="black" points="131.82,-83.5 142.31,-85.01 135.05,-77.29 131.82,-83.5"/>
<text text-anchor="middle" x="122.1" y="-78.3" font-family="Times,serif" font-size="14.00">i</text>
</g>
<!-- S1&#45;&gt;S1 -->
<g id="edge4" class="edge">
<title>S1&#45;&gt;S1</title>
<path fill="none" stroke="black" d="M164.11,-118.53C162.58,-128.19 165.58,-137 173.1,-137 177.8,-137 180.73,-133.56 181.9,-128.62"/>
<polygon fill="black" stroke="black" points="185.4,-128.59 182.09,-118.53 178.4,-128.46 185.4,-128.59"/>
<text text-anchor="middle" x="173.1" y="-140.8" font-family="Times,serif" font-size="14.00">i</text>
</g>
<!-- S2 -->
<g id="node4" class="node">
<title>S2</title>
<path fill="none" stroke="black" d="M268.6,-49.5C268.6,-49.5 305.6,-49.5 305.6,-49.5 311.6,-49.5 317.6,-55.5 317.6,-61.5 317.6,-61.5 317.6,-73.5 317.6,-73.5 317.6,-79.5 311.6,-85.5 305.6,-85.5 305.6,-85.5 268.6,-85.5 268.6,-85.5 262.6,-85.5 256.6,-79.5 256.6,-73.5 256.6,-73.5 256.6,-61.5 256.6,-61.5 256.6,-55.5 262.6,-49.5 268.6,-49.5"/>
<text text-anchor="middle" x="274.1" y="-63.8" font-family="Times,serif" font-size="14.00">S2</text>
<polyline fill="none" stroke="black" points="291.6,-49.5 291.6,-85.5 "/>
<text text-anchor="middle" x="304.6" y="-63.8" font-family="Times,serif" font-size="14.00">0</text>
</g>
<!-- S1&#45;&gt;S2 -->
<g id="edge5" class="edge">
<title>S1&#45;&gt;S2</title>
<path fill="none" stroke="black" d="M203.82,-91.74C216.86,-87.9 232.35,-83.34 246.36,-79.21"/>
<polygon fill="black" stroke="black" points="247.64,-82.48 256.24,-76.3 245.66,-75.77 247.64,-82.48"/>
<text text-anchor="middle" x="230.1" y="-89.3" font-family="Times,serif" font-size="14.00">~i</text>
</g>
<!-- S2&#45;&gt;S0 -->
<g id="edge6" class="edge">
<title>S2&#45;&gt;S0</title>
<path fill="none" stroke="black" d="M256.34,-64.02C240.66,-62.24 221.1,-60.12 203.6,-58.5 172.84,-55.65 137.98,-53.03 111.89,-51.18"/>
<polygon fill="black" stroke="black" points="111.85,-47.67 101.63,-50.47 111.36,-54.66 111.85,-47.67"/>
<text text-anchor="middle" x="173.1" y="-62.3" font-family="Times,serif" font-size="14.00">~i</text>
</g>
<!-- S3 -->
<g id="node5" class="node">
<title>S3</title>
<path fill="none" stroke="black" d="M382.6,-31.5C382.6,-31.5 419.6,-31.5 419.6,-31.5 425.6,-31.5 431.6,-37.5 431.6,-43.5 431.6,-43.5 431.6,-55.5 431.6,-55.5 431.6,-61.5 425.6,-67.5 419.6,-67.5 419.6,-67.5 382.6,-67.5 382.6,-67.5 376.6,-67.5 370.6,-61.5 370.6,-55.5 370.6,-55.5 370.6,-43.5 370.6,-43.5 370.6,-37.5 376.6,-31.5 382.6,-31.5"/>
<text text-anchor="middle" x="388.1" y="-45.8" font-family="Times,serif" font-size="14.00">S3</text>
<polyline fill="none" stroke="black" points="405.6,-31.5 405.6,-67.5 "/>
<text text-anchor="middle" x="418.6" y="-45.8" font-family="Times,serif" font-size="14.00">0</text>
</g>
<!-- S2&#45;&gt;S3 -->
<g id="edge7" class="edge">
<title>S2&#45;&gt;S3</title>
<path fill="none" stroke="black" d="M317.69,-63.68C328.67,-62.18 341.22,-60.37 352.6,-58.5 355.14,-58.08 357.75,-57.64 360.37,-57.17"/>
<polygon fill="black" stroke="black" points="361.28,-60.57 370.49,-55.34 360.03,-53.68 361.28,-60.57"/>
<text text-anchor="middle" x="344.1" y="-64.3" font-family="Times,serif" font-size="14.00">i</text>
</g>
<!-- S3&#45;&gt;S2 -->
<g id="edge8" class="edge">
<title>S3&#45;&gt;S2</title>
<path fill="none" stroke="black" d="M370.59,-39.76C359.5,-37.45 346.86,-36.43 335.6,-39.5 330.99,-40.76 326.38,-42.59 321.94,-44.72"/>
<polygon fill="black" stroke="black" points="320.28,-41.63 313.11,-49.43 323.58,-47.81 320.28,-41.63"/>
<text text-anchor="middle" x="344.1" y="-43.3" font-family="Times,serif" font-size="14.00">~i</text>
</g>
<!-- S4 -->
<g id="node6" class="node">
<title>S4</title>
<path fill="none" stroke="black" d="M484.6,-0.5C484.6,-0.5 521.6,-0.5 521.6,-0.5 527.6,-0.5 533.6,-6.5 533.6,-12.5 533.6,-12.5 533.6,-24.5 533.6,-24.5 533.6,-30.5 527.6,-36.5 521.6,-36.5 521.6,-36.5 484.6,-36.5 484.6,-36.5 478.6,-36.5 472.6,-30.5 472.6,-24.5 472.6,-24.5 472.6,-12.5 472.6,-12.5 472.6,-6.5 478.6,-0.5 484.6,-0.5"/>
<text text-anchor="middle" x="490.1" y="-14.8" font-family="Times,serif" font-size="14.00">S4</text>
<polyline fill="none" stroke="black" points="507.6,-0.5 507.6,-36.5 "/>
<text text-anchor="middle" x="520.6" y="-14.8" font-family="Times,serif" font-size="14.00">1</text>
</g>
<!-- S3&#45;&gt;S4 -->
<g id="edge9" class="edge">
<title>S3&#45;&gt;S4</title>
<path fill="none" stroke="black" d="M431.83,-40.28C441.52,-37.28 452.43,-33.9 462.71,-30.71"/>
<polygon fill="black" stroke="black" points="463.79,-34.04 472.31,-27.74 461.72,-27.35 463.79,-34.04"/>
<text text-anchor="middle" x="452.1" y="-38.3" font-family="Times,serif" font-size="14.00">i</text>
</g>
<!-- S4&#45;&gt;S0 -->
<g id="edge10" class="edge">
<title>S4&#45;&gt;S0</title>
<path fill="none" stroke="black" d="M472.54,-11.25C452.74,-7.02 426.01,-2.5 402.1,-2.5 172.1,-2.5 172.1,-2.5 172.1,-2.5 148.01,-2.5 123.41,-13.65 104.63,-24.97"/>
<polygon fill="black" stroke="black" points="102.75,-22.02 96.17,-30.32 106.49,-27.93 102.75,-22.02"/>
<text text-anchor="middle" x="287.1" y="-6.3" font-family="Times,serif" font-size="14.00">*</text>
</g>
</g>
</svg>
